<svg width="150" height="150" xmlns="http://www.w3.org/2000/svg">

 <g>
  <rect fill="none" id="canvas_background" height="152" width="152" y="-1" x="-1"/>
 </g>
 <g>
  <g id="svgg">
   <path fill-rule="evenodd" fill="#f42a41" d="m35.231,3.812c-0.578,0.042 -1.762,0.21 -2.63,0.375c-0.868,0.164 -2.477,0.407 -3.577,0.539c-1.099,0.133 -2.567,0.459 -3.261,0.724c-0.695,0.266 -1.807,0.641 -2.473,0.833c-0.665,0.193 -1.21,0.433 -1.21,0.534c0,0.1 -0.497,0.346 -1.104,0.546c-0.608,0.2 -1.373,0.586 -1.7,0.858c-0.327,0.273 -0.689,0.495 -0.804,0.495c-0.839,0 -6.874,5.506 -8.444,7.704c-1.089,1.524 -1.957,2.937 -2.253,3.668c-0.162,0.4 -0.473,0.973 -0.69,1.273c-0.217,0.299 -0.488,0.961 -0.602,1.469c-0.115,0.509 -0.339,1.07 -0.499,1.246c-0.16,0.177 -0.389,0.747 -0.509,1.266c-0.12,0.519 -0.421,1.796 -0.668,2.838c-0.247,1.041 -0.548,2.367 -0.667,2.946c-0.319,1.546 -0.468,82.433 -0.158,86.028c0.128,1.487 0.465,3.57 0.748,4.629c0.284,1.059 0.516,2.186 0.517,2.504c0,0.318 0.284,1.179 0.631,1.914c0.348,0.735 0.632,1.519 0.632,1.743c0,0.225 0.331,0.922 0.736,1.551c0.405,0.629 0.737,1.22 0.737,1.313c0,0.214 1.271,2.151 1.986,3.029c0.296,0.363 0.539,0.749 0.539,0.857c0,0.108 0.213,0.391 0.473,0.629c0.26,0.238 1.207,1.202 2.104,2.142c0.897,0.94 1.72,1.709 1.829,1.709c0.11,0 0.323,0.17 0.474,0.378c0.359,0.495 1.944,1.616 3.023,2.139c0.47,0.227 1.03,0.606 1.243,0.842c0.213,0.236 0.539,0.429 0.723,0.429c0.185,0.001 0.993,0.332 1.797,0.737c0.803,0.404 1.655,0.738 1.893,0.741c0.238,0.002 1.001,0.239 1.696,0.525c0.694,0.287 2.067,0.625 3.051,0.751c0.983,0.126 2.309,0.322 2.946,0.434c0.636,0.113 1.82,0.288 2.63,0.389c1.899,0.237 79.516,0.246 81.325,0.01c0.753,-0.099 1.984,-0.278 2.736,-0.399c0.752,-0.121 2.15,-0.325 3.107,-0.453c0.957,-0.128 2.235,-0.464 2.841,-0.746c0.605,-0.282 1.337,-0.518 1.627,-0.525c0.289,-0.006 0.857,-0.19 1.262,-0.407c1.222,-0.657 2.141,-1.057 2.424,-1.057c0.147,0 0.49,-0.235 0.763,-0.523c0.273,-0.287 0.652,-0.524 0.844,-0.526c0.191,-0.002 0.745,-0.335 1.23,-0.74c0.484,-0.405 0.957,-0.736 1.05,-0.736c0.446,0 5.44,-4.89 6.052,-5.925c0.194,-0.329 0.425,-0.598 0.514,-0.598c0.088,0 0.363,-0.403 0.61,-0.895c0.247,-0.491 0.586,-1.05 0.753,-1.24c0.475,-0.54 1.903,-3.43 2.069,-4.183c0.082,-0.373 0.323,-0.974 0.535,-1.336c0.213,-0.362 0.539,-1.415 0.725,-2.341c0.185,-0.926 0.469,-2.109 0.631,-2.63c0.734,-2.366 0.762,-4.324 0.694,-47.449l-0.068,-42.504l-0.57,-2.104c-0.314,-1.157 -0.632,-2.53 -0.706,-3.051c-0.075,-0.521 -0.361,-1.373 -0.635,-1.894c-0.275,-0.521 -0.597,-1.345 -0.717,-1.831c-0.119,-0.487 -0.347,-1.015 -0.506,-1.174c-0.158,-0.158 -0.496,-0.771 -0.75,-1.362c-0.254,-0.59 -0.643,-1.237 -0.863,-1.437c-0.221,-0.2 -0.403,-0.467 -0.404,-0.593c-0.004,-0.484 -2.038,-2.944 -4.161,-5.034c-2.364,-2.327 -3.756,-3.435 -5.093,-4.057c-0.404,-0.187 -1.003,-0.567 -1.331,-0.843c-0.329,-0.276 -0.726,-0.502 -0.884,-0.502c-0.157,0 -0.931,-0.331 -1.72,-0.735c-0.788,-0.405 -1.634,-0.736 -1.88,-0.737c-0.246,0 -0.956,-0.225 -1.578,-0.499c-0.739,-0.325 -2.081,-0.617 -3.877,-0.844c-1.51,-0.191 -3.072,-0.461 -3.472,-0.602c-0.677,-0.239 -78.583,-0.453 -81.736,-0.225m53.762,25.944c2.604,0.103 5.065,0.291 5.47,0.417c0.405,0.127 1.625,0.366 2.711,0.532c1.085,0.167 2.184,0.441 2.442,0.61c0.259,0.17 1.027,0.47 1.708,0.668c0.681,0.198 1.592,0.583 2.024,0.856c0.433,0.273 0.91,0.496 1.06,0.496c0.151,0 0.789,0.331 1.418,0.737c0.629,0.405 1.26,0.736 1.403,0.736c0.142,0 0.335,0.128 0.428,0.285c0.092,0.157 0.367,0.389 0.611,0.517c0.766,0.402 3.304,2.475 4.58,3.742c2.036,2.021 3.736,4.127 4.571,5.661c0.252,0.463 0.682,1.109 0.955,1.437c0.274,0.327 0.498,0.716 0.498,0.865c0,0.148 0.232,0.612 0.516,1.031c0.284,0.418 0.663,1.252 0.841,1.853c0.178,0.6 0.457,1.241 0.619,1.425c0.162,0.183 0.406,0.901 0.542,1.595c0.137,0.695 0.44,1.784 0.674,2.42c0.899,2.446 0.988,11.494 0.144,14.624c-0.219,0.81 -0.574,2.145 -0.789,2.967c-0.216,0.821 -0.537,1.721 -0.715,1.999c-0.178,0.277 -0.447,0.931 -0.598,1.452c-0.151,0.52 -0.49,1.268 -0.754,1.66c-0.264,0.392 -0.48,0.835 -0.48,0.983c0,0.149 -0.224,0.538 -0.497,0.865c-0.273,0.327 -0.666,0.926 -0.873,1.331c-0.207,0.405 -0.552,0.86 -0.766,1.012c-0.214,0.151 -0.389,0.376 -0.389,0.5c0,0.124 -0.308,0.581 -0.684,1.015c-0.376,0.434 -1.057,1.251 -1.514,1.814c-0.456,0.564 -1.435,1.546 -2.174,2.182c-0.739,0.637 -1.455,1.258 -1.59,1.382c-0.135,0.123 -0.53,0.403 -0.877,0.621c-0.347,0.218 -0.773,0.522 -0.947,0.676c-0.684,0.605 -1.839,1.342 -2.874,1.833c-0.597,0.284 -1.146,0.614 -1.22,0.735c-0.075,0.12 -0.673,0.375 -1.329,0.565c-0.657,0.191 -1.433,0.521 -1.726,0.732c-0.292,0.212 -1.099,0.476 -1.793,0.587c-0.695,0.111 -1.689,0.391 -2.21,0.623c-1.673,0.745 -4.902,0.872 -22.217,0.872l-16.432,0.001l-0.252,0.553c-0.138,0.304 -0.31,0.991 -0.382,1.526c-0.072,0.534 -0.316,1.398 -0.543,1.919c-0.227,0.521 -0.548,1.704 -0.713,2.629c-0.165,0.925 -0.44,1.896 -0.611,2.157c-0.171,0.261 -0.448,1.261 -0.616,2.223c-0.168,0.961 -0.491,2.169 -0.719,2.684c-0.228,0.515 -0.511,1.539 -0.63,2.278c-0.119,0.738 -0.352,1.495 -0.518,1.682c-0.166,0.187 -0.448,0.694 -0.627,1.127c-0.34,0.824 -1.518,2.454 -1.991,2.755c-0.152,0.096 -0.578,0.433 -0.947,0.749c-0.369,0.315 -1.448,0.875 -2.397,1.245l-1.725,0.671l-8.515,0l-8.514,0l-0.682,-0.86l-0.681,-0.86l0.45,-1.402c0.247,-0.771 0.55,-2.053 0.672,-2.849c0.122,-0.795 0.347,-1.695 0.501,-1.999c0.154,-0.303 0.393,-1.215 0.532,-2.025c0.139,-0.81 0.446,-2.041 0.682,-2.735c0.236,-0.695 0.562,-2.02 0.726,-2.946c0.163,-0.926 0.486,-2.132 0.719,-2.681c0.232,-0.548 0.512,-1.707 0.622,-2.575c0.11,-0.868 0.384,-1.939 0.609,-2.38c0.225,-0.441 0.51,-1.526 0.633,-2.41c0.123,-0.884 0.415,-2.11 0.649,-2.724c0.235,-0.615 0.568,-1.933 0.742,-2.929c0.174,-0.996 0.467,-2.114 0.651,-2.484c0.185,-0.37 0.432,-1.401 0.55,-2.292c0.118,-0.89 0.382,-1.95 0.588,-2.356c0.205,-0.405 0.488,-1.493 0.628,-2.418c0.14,-0.925 0.437,-2.167 0.659,-2.76c0.222,-0.594 0.544,-1.817 0.717,-2.719c0.542,-2.833 -2.227,-2.569 27.167,-2.598l24.861,-0.025l1.126,-0.524c0.619,-0.288 1.267,-0.526 1.441,-0.528c0.299,-0.004 1.645,-1.191 2.685,-2.366c1.69,-1.912 1.944,-5.384 0.646,-8.822c-0.271,-0.717 -2.554,-3.047 -3.175,-3.239c-0.26,-0.081 -0.756,-0.347 -1.103,-0.593l-0.631,-0.445l-25.145,-0.126c-17.102,-0.086 -25.414,-0.2 -25.986,-0.356c-0.463,-0.126 -1.505,-0.421 -2.315,-0.657c-0.81,-0.235 -1.664,-0.43 -1.897,-0.433c-0.234,-0.004 -0.755,-0.229 -1.158,-0.5c-0.403,-0.271 -0.974,-0.552 -1.269,-0.625c-1.451,-0.355 -5.671,-4.56 -5.671,-5.652c0,-0.109 -0.26,-0.738 -0.578,-1.396l-0.579,-1.197l-0.066,-6.604c-0.073,-7.274 -0.027,-7.616 1.08,-7.972c0.852,-0.274 53.81,-0.318 60.533,-0.05" id="path0"/>
  </g>
 </g>
</svg>