<svg xmlns="http://www.w3.org/2000/svg" xmlns:xlink="http://www.w3.org/1999/xlink" width="40" height="32" viewBox="0 0 40 32">
  <defs>
    <path id="logo-pizzaonline-icon-a" d="M10.4113795,0.53172093 C3.3618424,2.05246512 -1.15637841,9.17172093 0.320433506,16.4327442 C1.79724543,23.6933953 8.70878302,28.3467907 15.7583202,26.8260465 C22.8082186,25.3053023 27.3257169,18.1860465 25.8489049,10.9250233 C24.5613908,4.59274419 19.1403929,0.243348837 13.0983969,0.24372093 C12.2122375,0.24372093 11.3127117,0.337116279 10.4113795,0.53172093"></path>
    <path id="logo-pizzaonline-icon-c" d="M2.31925943,0.937674419 C1.55592685,0.900837209 0.815714608,0.657116279 0.173402574,0.230697674 C0.476857078,1.35144186 1.45007902,2.14065116 2.57936329,2.18046512 C3.91239557,2.26604651 4.97809889,1.35813953 4.96039738,0.148837209 L4.96039738,0.0930232558 C4.45427862,0.666046512 3.46443893,1.01209302 2.31925943,0.937674419"></path>
    <path id="logo-pizzaonline-icon-e" d="M3.86073606,4.18493023 C-1.23188079,9.43032558 -1.23188079,17.9356279 3.86073606,23.1813953 C8.95407541,28.4271628 17.210928,28.4271628 22.3039061,23.1813953 C27.3972454,17.9356279 27.3972454,9.43032558 22.3039061,4.18493023 C19.757417,1.56204651 16.4197787,0.250418605 13.0825017,0.250418605 C9.7448634,0.250418605 6.40758636,1.56204651 3.86073606,4.18493023 Z"></path>
    <path id="logo-pizzaonline-icon-g" d="M5.84836306,0.275348837 L2.91171822,2.49674419 C2.73325807,2.45134884 2.5501016,2.42865116 2.36622262,2.42976744 C1.04655678,2.4744186 0.00794761797,3.60446512 0.0361255362,4.96372093 C0.0361255362,6.03906977 0.65748476,5.87906977 1.53172274,6.23627907 L1.56423572,8.09674419 C1.56423572,8.46883721 3.14653421,8.75869767 5.72192368,8.74790698 C8.29803567,8.73674419 9.87310905,8.42418605 9.88394671,8.04837209 L9.93090991,6.24706977 C10.8701739,5.90511628 11.5601716,6.03534884 11.5601716,4.91906977 C11.5966584,3.56948837 10.5634681,2.44502326 9.25319485,2.40781395 C9.24813728,2.40781395 9.24271845,2.40781395 9.23729962,2.40744186 C9.077986,2.40855814 8.9193949,2.42716279 8.76405509,2.46325581 C8.58378867,1.22530233 7.35732671,0.275348837 5.86570332,0.275348837 C5.85992323,0.275348837 5.85414315,0.275348837 5.84836306,0.275348837"></path>
  </defs>
  <g fill="none" fill-rule="evenodd">
    <path fill="#FFF" d="M4.14088959,7.02582326 C9.23386769,1.78005581 17.4910815,1.78005581 22.5840596,7.02582326 C27.6770377,12.2715907 27.6770377,20.7765209 22.5840596,26.0222884 C17.4910815,31.2680558 9.23386769,31.2680558 4.14088959,26.0222884 C-0.952088508,20.7765209 -0.952088508,12.2715907 4.14088959,7.02582326"></path>
    <g transform="translate(.28 2.84)">
      <mask id="logo-pizzaonline-icon-b" fill="#fff">
        <use xlink:href="#logo-pizzaonline-icon-a"></use>
      </mask>
      <use fill="#008151" xlink:href="#logo-pizzaonline-icon-a"></use>
      <path fill="#26B471" d="M12.5424972,-2.98065116 C19.5920343,-4.50139535 26.5039332,0.151627907 27.9803838,7.41265116 C29.4571958,14.6736744 24.9393362,21.7929302 17.8894378,23.3136744 C10.8402619,24.8347907 3.92836306,20.1813953 2.45155114,12.9203721 C0.975100474,5.65934884 5.49296004,-1.45990698 12.5424972,-2.98065116" mask="url(#logo-pizzaonline-icon-b)"></path>
    </g>
    <g transform="translate(8.589 9.167)">
      <polygon fill="#F6CA9E" points="10.581 16.547 .166 16.547 1.315 .03 9.432 .03"></polygon>
      <path fill="#6A1213" d="M3.06344547,9.90507907 C3.36689998,11.0258233 4.34048318,11.8150326 5.46940619,11.8548465 C6.80243847,11.9404279 7.86814179,11.0325209 7.85007902,9.8232186 L7.85007902,9.76740465 C7.34432152,10.3404279 6.35448182,10.6864744 5.20930233,10.6120558 C4.44596974,10.5752186 3.70575751,10.3314977 3.06344547,9.90507907"></path>
    </g>
    <g transform="translate(11.479 18.84)">
      <mask id="logo-pizzaonline-icon-d" fill="#fff">
        <use xlink:href="#logo-pizzaonline-icon-c"></use>
      </mask>
      <path fill="#EE6A42" d="M3.97380899,2.35166512 C3.97380899,2.80933953 3.45360126,3.14422326 2.79250395,3.09585116 C2.13140664,3.04747907 1.59313615,2.64933953 1.58591104,2.19166512 C1.57868593,1.7339907 2.10611876,1.39910698 2.76721608,1.44747907 C3.42831339,1.49585116 3.97380899,1.8939907 3.97380899,2.35166512" mask="url(#logo-pizzaonline-icon-d)"></path>
    </g>
    <g transform="translate(.28 2.84)">
      <mask id="logo-pizzaonline-icon-f" fill="#fff">
        <use xlink:href="#logo-pizzaonline-icon-e"></use>
      </mask>
      <path fill="#EAEAEB" d="M8.54365319,20.2159628 C8.54365319,20.2159628 13.7096049,22.7796837 18.9658704,20.096893 C18.9658704,20.096893 20.9238745,24.2081488 22.2641319,26.7573581 C23.5285256,29.1610791 12.1489817,32.6103814 12.1489817,32.6103814 L6.9071664,27.988986 C6.11962971,27.2924279 5.89059381,26.1341023 6.35083315,25.1759628 L8.54365319,20.2159628 Z" mask="url(#logo-pizzaonline-icon-f)"></path>
    </g>
    <g transform="translate(1.725 .236)">
      <path fill="#AF5D2A" d="M37.4043802,19.8362047 C36.7794084,16.9041116 32.6863852,15.3376 28.2682321,16.3385302 C23.8497178,17.3394605 20.7721833,20.5469023 21.4007677,23.4641116 C21.4896365,23.8789953 21.6485888,24.2745302 21.8703996,24.6328558 L0.776699029,30.2845767 L0.726123278,30.2845767 C0.0758636261,30.4557395 0.166177467,30.8092279 0.2492662,31.1147163 C0.332354933,31.4194605 0.520207722,31.601786 0.971776925,31.4492279 L1.00428991,31.4492279 L1.02596523,31.4492279 L2.16753217,31.125507 L22.433958,25.3506233 C24.0451569,27.0068093 27.1953037,27.7171349 30.532942,26.961786 C34.9550689,25.9608558 38.0289907,22.7794605 37.4043802,19.8362047"></path>
      <path fill="#F49020" d="M28.4206457,15.8770977 C32.8312125,14.6971907 36.9982931,16.086586 37.7283902,18.9807256 C38.4577647,21.8748651 35.4737954,25.1775628 31.0632287,26.3574698 C26.652662,27.5370047 22.4855814,26.1476093 21.7562068,23.2538419 C21.0261097,20.3597023 24.010079,17.0570047 28.4206457,15.8770977"></path>
      <path fill="#E67A26" d="M28.6316189,16.4717767 C32.2698216,15.4983814 35.6822398,16.5458233 36.2537458,18.8114977 C36.8248905,21.0768 34.3387311,23.7026605 30.7005283,24.6760558 C27.0623256,25.6490791 23.6499074,24.6016372 23.0787627,22.3363349 C22.5072567,20.0706605 24.9937774,17.4451721 28.6316189,16.4717767"></path>
      <path fill="#FAB437" d="M28.6700564,16.6140279 C32.2891127,15.6458419 35.6773267,16.6653767 36.2387175,18.8912372 C36.8001084,21.1167256 34.3215353,23.7057488 30.7024791,24.674307 C27.0834229,25.6421209 23.6952089,24.622586 23.133818,22.3970977 C22.5724272,20.1712372 25.0510002,17.582214 28.6700564,16.6140279"></path>
      <path fill="#BA3158" d="M32.5648589 17.3456744C33.3393904 17.1376744 34.0774351 17.4059535 34.2136284 17.9447442 34.3501829 18.483907 33.8335877 19.0893023 33.0590562 19.2973023 32.2852472 19.5053023 31.5468413 19.2370233 31.410648 18.6978605 31.2740935 18.1590698 31.7906886 17.5536744 32.5648589 17.3456744M26.1303229 18.4968186C26.9062994 18.2906791 27.6450666 18.5615628 27.7801761 19.1018419 27.9152856 19.6421209 27.3961617 20.2471442 26.6198239 20.4529116 25.8438474 20.6590512 25.1050802 20.3881674 24.9699706 19.8478884 24.8348611 19.3079814 25.3543464 18.7029581 26.1303229 18.4968186M29.3241454 21.6623628C30.0983156 21.4543628 30.8367216 21.7226419 30.9729149 22.2614326 31.1091082 22.8002233 30.592513 23.4056186 29.8183427 23.6139907 29.0441725 23.8216186 28.3061278 23.5537116 28.1695733 23.0145488 28.0330187 22.4757581 28.5496139 21.8703628 29.3241454 21.6623628"></path>
      <path fill="#C87929" d="M6.8024746 4.91906977C4.79281102 6.34344186 3.1306751 8.22883721 1.94720253 10.4260465 2.07002935 10.5030698 2.19032739 10.576 2.30845789 10.6455814 2.68416347 9.52930233 3.71374125 7.66511628 6.8024746 4.91906977M.299878076 5.55914419L.260139986 5.60007442.260139986 5.64844651C.708096636 5.2279814 2.16395575 4.4651907 6.74106119 4.18984186 6.72299842 4.17495814 1.84966358 3.92565581.299878076 5.55914419M7.61880334 4.9376C7.61880334 4.9376 7.23587266 9.19434419 7.69105441 11.4269023L8.11011063 11.3673674C7.70116956 9.25164651 7.53607586 7.09350698 7.61880334 4.9376M15.0065478 7.624C15.1051705 7.49748837 15.1965681 7.3735814 15.2811018 7.25190698 13.0738316 5.39144186 8.6231655 4.81506977 8.6231655 4.81506977 12.2104312 5.48446512 14.1684353 6.87237209 15.0065478 7.624M8.95201626 3.99627907C13.1534161 2.99534884 15.0933574 3.11069767 15.9278573 3.3227907 15.8758365 3.18511628 15.8155069 3.0507907 15.7472296 2.92093023 13.7491262 2.68651163 8.95201626 3.99627907 8.95201626 3.99627907M10.1910138.197246512L9.72499436.197246512C9.19792278 1.11110698 8.74490856 2.06813023 8.37028675 3.05864186 8.78392414 1.98813023 9.40311583 1.01510698 10.1910138.197246512M7.5284895 3.31531163C7.5284895 3.31531163 6.41221043 1.74507907 4.76127343 1.32461395 4.59039964 1.40386977 4.42169338 1.48573023 4.25551592 1.57019535 4.54452021 1.50693953 5.62467374 1.43996279 7.5284895 3.31531163" transform="translate(21.675 15.256)"></path>
      <path fill="#F0B57B" d="M20.1001039 27.3413209C20.2626688 26.7050419 19.4574306 25.8976 19.1575886 25.5924837L19.1319395 25.5664372C18.8031971 25.2352744 18.0481734 24.4501581 17.347338 24.6213209 16.8199052 24.7444837 16.3289591 25.4105302 15.9239919 26.5450419 15.7036261 27.1664372 15.5161346 27.9887628 15.8806412 28.405507 16.3647234 28.945414 17.686918 28.7143442 18.1316234 28.5915535 19.2800542 28.2607628 19.977277 27.8213209 20.1001039 27.3413209M8.41717769 30.7275907C8.95544818 30.6234047 9.47926846 29.960707 9.93445021 28.8146605 10.1837164 28.1932651 10.4040822 27.3597767 10.0536645 26.9541953 9.58403251 26.388986 8.21126214 26.5821023 7.76691804 26.6829395 6.5783879 26.9657302 5.84865207 27.3824744 5.70776247 27.8624744 5.52352224 28.4987535 6.31105893 29.3508465 6.61090088 29.6782884L6.63618876 29.7080558C6.96131858 30.0425674 7.71634229 30.8611721 8.41717769 30.7275907"></path>
      <path fill="#EAEAEB" d="M28.6040912,12.6140279 C28.6040912,12.6140279 26.436559,11.4977488 29.568643,9.2651907 C33.1811967,6.66053953 29.5437164,3.37867907 27.610639,5.0679814 C26.9340077,5.58370233 26.7913118,6.56751628 27.292373,7.26444651 C27.3133258,7.29309767 27.3350011,7.32137674 27.3581215,7.34891163 C27.3581215,7.34891163 27.25697,6.19914419 28.5791646,6.16193488 C29.698695,6.12844651 30.135814,7.77309767 28.7774938,8.97123721 C27.9104809,9.75635349 26.0102777,11.6168186 27.278284,12.9637953 C24.2730007,11.2224 26.8957146,9.14612093 26.8957146,9.14612093 C23.2575119,11.434493 24.8434229,13.8196093 26.9603793,14.8019349 C29.2796387,15.8772837 28.8790065,18.0279814 28.2468097,18.690307 C28.2428359,18.686586 31.7903635,14.6828651 28.6040912,12.6140279"></path>
      <path fill="#000" d="M14.7825333 11.3413209C14.2901422 11.1240186 13.749343 11.0492279 13.2182976 11.125507 13.128345 11.1381581 13.0369474 11.1195535 12.9581937 11.073414 12.9003929 11.0313674 12.8451208 10.9852279 12.7920163 10.9357395 12.7306028 10.8836465 12.7920163 10.7869023 12.8895552 10.7422512 13.6109822 10.4482977 14.428503 10.5532279 15.0570874 11.0213209 15.1076631 11.0585302 15.0570874 11.1441116 14.995674 11.2259721 14.9053601 11.3003907 14.8114337 11.3524837 14.7825333 11.3413209M10.0248363 11.5720558C10.4807406 11.2914977 11.0034771 11.1471256 11.5348837 11.1553116 11.6248363 11.1564279 11.7126214 11.1262884 11.7841499 11.0697302 11.8325581 11.0187535 11.8784376 10.9655442 11.921427 10.9097302 11.9720027 10.8501953 11.921427 10.760893 11.7949876 10.7311256 11.0540528 10.5331721 10.2657936 10.7426605 9.71054414 11.2855442 9.6671935 11.3264744 9.71054414 11.4120558 9.80447054 11.4790326 9.89478438 11.5460093 9.98871077 11.5869395 10.0248363 11.5720558"></path>
      <path fill="#FFF" d="M14.3239196,12.7330233 C14.2874328,13.3544186 13.9626643,13.812093 13.6263355,13.7525581 C13.2907293,13.6930233 13.0230391,13.1460465 13.0595259,12.5283721 C13.0956514,11.9106977 13.4207812,11.6055814 13.7567487,11.6613953 C14.0923549,11.7172093 14.3600452,12.1302326 14.3239196,12.7330233"></path>
      <path fill="#000" d="M13.1328968,13.0666047 C13.1520434,12.6580465 13.4273199,12.339907 13.7481147,12.355907 C14.0692707,12.3715349 14.3138406,12.7157209 14.2946941,13.1242791 C14.2755475,13.5328372 13.9999097,13.8509767 13.6791149,13.8349767 C13.3583202,13.8189767 13.113389,13.4751628 13.1328968,13.0666047"></path>
      <path fill="#FFF" d="M13.7848544 12.8433116C13.7917182 12.7037767 13.8852834 12.5951256 13.995105 12.6003349 14.1049266 12.6059163 14.1883766 12.7234977 14.181874 12.8630326 14.1753714 13.0025674 14.0810838 13.1112186 13.9716234 13.1060093 13.8618018 13.1004279 13.7783518 12.9828465 13.7848544 12.8433116M11.628774 12.7330233C11.5926485 13.3544186 11.2675186 13.812093 10.9315511 13.7525581 10.5955837 13.6930233 10.3282547 13.1460465 10.3643802 12.5283721 10.4005058 11.9106977 10.7256356 11.6055814 11.0616031 11.6613953 11.3975706 11.7172093 11.6648995 12.1302326 11.628774 12.7330233"></path>
      <path fill="#000" d="M10.434247,13.0707721 C10.4533935,12.662214 10.7290314,12.3440744 11.0498261,12.3600744 C11.3706209,12.3760744 11.6151908,12.7198884 11.5960443,13.1284465 C11.577259,13.5370047 11.3012599,13.8551442 10.9804651,13.8391442 C10.6596704,13.8231442 10.4151005,13.4793302 10.434247,13.0707721"></path>
      <path fill="#FFF" d="M11.0865658,12.8438698 C11.0930684,12.7043349 11.1873561,12.5956837 11.2968164,12.600893 C11.4066381,12.6064744 11.4900881,12.7240558 11.4835855,12.8635907 C11.4770829,13.0031256 11.3827952,13.1117767 11.2733348,13.1065674 C11.1635132,13.100986 11.0800632,12.9834047 11.0865658,12.8438698"></path>
      <path fill="#EAEAEB" d="M18.0627681,4.86329302 C18.1006999,3.51371163 17.0696771,2.38775814 15.7594039,2.34831628 L15.7435087,2.34794419 C15.5845563,2.34906047 15.425604,2.36766512 15.2702642,2.40375814 C15.0896365,1.16096744 13.8577557,0.204688372 12.3585459,0.208409302 C10.8593362,0.212130233 9.60939264,1.18701395 9.43237751,2.44096744 C9.25391736,2.39557209 9.07076089,2.37287442 8.88688191,2.3739907 C7.55637841,2.40822326 6.50512531,3.5472 6.53872206,4.9176186 L6.53872206,4.91910698 C6.52210431,5.94347907 7.11311809,6.8752 8.03070671,7.27073488 L8.05599458,9.58143256 C8.05599458,9.95352558 9.63468051,10.2474791 12.2140438,10.2400372 C14.7934071,10.2325953 16.3648679,9.90515349 16.3757056,9.53306047 L16.4298939,7.27073488 C17.416121,6.90794419 18.0714382,5.9419907 18.0627681,4.86329302"></path>
    </g>
    <g transform="translate(8.228 1.725)">
      <mask id="logo-pizzaonline-icon-h" fill="#fff">
        <use xlink:href="#logo-pizzaonline-icon-g"></use>
      </mask>
      <path fill="#C6C3C2" d="M1.48840822,7.03624186 L1.34390607,8.11903256 C1.34390607,8.49112558 3.02374351,8.81484651 5.72232107,8.79996279 C8.42053737,8.78507907 10.0898984,8.46135814 10.1007361,8.05577674 L9.97032287,7.05112558 C9.37461278,7.3488 8.01629262,7.57205581 5.79095958,7.5832186 C3.37777376,7.60926512 1.89301422,7.36740465 1.48840822,7.03624186" mask="url(#logo-pizzaonline-icon-h)"></path>
    </g>
    <g transform="translate(8.228 13.26)">
      <path fill="#000" d="M11.2892301,2.71992558 C11.0941522,2.66783256 10.5233687,3.6203907 9.81892075,3.6203907 C8.91578234,3.6203907 8.76044254,2.45573953 7.35154662,2.45573953 C6.72115602,2.46950698 6.14170242,2.8151814 5.81621133,3.37108837 C5.49072025,2.8151814 4.91126665,2.46950698 4.28087604,2.45573953 C2.86836758,2.45573953 2.71664033,3.6203907 1.80988937,3.6203907 C1.10544141,3.6203907 0.53827049,2.66783256 0.343192594,2.71992558 C0.148114699,2.7720186 0.679160081,5.93108837 3.15014676,5.93108837 C4.75412057,5.93108837 5.6789343,4.76643721 5.81621133,4.76643721 C5.95348837,4.76643721 6.8783021,6.07620465 8.48227591,6.07620465 C10.9532626,6.07620465 11.4734703,2.76829767 11.2892301,2.71992558"></path>
      <path fill="#F6CA9E" d="M3.74625423,2.52643721 C3.74625423,4.84085581 6.99755249,5.17946047 7.72006322,3.4231814 C8.33780989,1.89387907 7.22514337,0.747832558 6.27504177,0.238065116 C5.61755701,-0.134027907 5.16237525,0.327367442 4.63494242,0.7776 C4.07246783,1.16978605 3.73866787,1.82690233 3.74625423,2.52643721"></path>
    </g>
  </g>
</svg>