<svg width="150" height="150" xmlns="http://www.w3.org/2000/svg">

 <g>
  <title>background</title>
  <rect transform="translate(347.7022399902344,0) translate(0,0) translate(1,1) translate(1,1) translate(0,0) translate(1,1) " fill="none" id="canvas_background" height="152" width="152" y="-1" x="-1"/>
 </g>
 <g>
  <title>Layer 1</title>
  <g id="svg_1">
   <path fill-rule="evenodd" fill="#fc6c04" d="m34.764552,4.414572c-4.207,0.319 -7.785,1.003 -9.874,1.887c-0.231,0.098 -0.961,0.371 -1.622,0.607c-6.99,2.501 -12.953,8.522 -16.559,16.722c-0.876,1.992 -1.458,4.538 -2.092,9.139c-0.644,4.684 -0.654,80.493 -0.011,85.294c0.6,4.47 1.226,7.188 2.105,9.139c0.105,0.231 0.466,1.034 0.803,1.785c4.661,10.384 14.173,16.399 27.565,17.434c3.095,0.239 77.46,0.246 80.672,0.007c16.187,-1.202 27.338,-10.41 29.9,-24.688c0.187,-1.04 0.458,-2.506 0.604,-3.257c0.456,-2.361 0.514,-81.348 0.061,-85.084c-0.461,-3.815 -1.143,-7.163 -1.776,-8.718c-3.93,-9.66 -9.918,-15.496 -19.02,-18.54c-1.74,-0.582 -2.848,-0.831 -6.933,-1.556c-1.677,-0.297 -80.04,-0.457 -83.823,-0.171m-1.366,61.023l0,1.996l-3.991,0l-3.992,0l0,9.956c0,8.886 -0.036,9.971 -0.332,10.084c-0.432,0.166 -3.316,0.166 -3.747,0c-0.297,-0.113 -0.333,-1.198 -0.333,-10.084l0,-9.956l-3.991,0l-3.992,0l0,-1.996l0,-1.996l10.189,0l10.189,0l0,1.996m23.402,-1.663c0.262,0.683 0.143,23.308 -0.124,23.575c-0.263,0.262 -3.012,0.357 -3.618,0.124c-0.346,-0.133 -0.535,-23.549 -0.192,-23.892c0.322,-0.321 3.802,-0.151 3.934,0.193m28.699,3.695l0,4.029l0.475,-0.447c1.25,-1.174 4.023,-1.763 6.297,-1.338c8.834,1.652 9.997,13.96 1.677,17.737c-2.277,1.034 -6.33,0.548 -7.971,-0.955c-0.453,-0.415 -0.471,-0.416 -0.595,-0.029c-0.438,1.372 -0.397,1.345 -2.042,1.345c-0.917,0 -1.64,-0.102 -1.791,-0.252c-0.267,-0.267 -0.386,-23.102 -0.124,-23.785c0.104,-0.271 0.495,-0.333 2.101,-0.333l1.973,0l0,4.028m44.491,-0.719l0.058,3.204l2.988,0.003c3.682,0.004 3.548,-0.073 3.47,2.011l-0.062,1.662l-3.203,0.058l-3.204,0.058l0,4.078c0,6.137 1.017,7.375 4.746,5.777c1.28,-0.549 1.399,-0.489 2.168,1.087c0.776,1.592 0.685,1.761 -1.392,2.593c-2.739,1.096 -6.251,0.678 -7.824,-0.931c-1.489,-1.523 -1.574,-1.9 -1.69,-7.468l-0.105,-5.042l-1.569,-0.062c-1.844,-0.074 -1.89,-0.121 -1.894,-1.944c-0.004,-1.75 0.137,-1.88 2.035,-1.88l1.533,0l0,-3.264l0,-3.265l1.944,0.061l1.943,0.06l0.058,3.204m-87.215,3.321c0.447,0.204 1.12,0.597 1.496,0.874l0.684,0.502l0.209,-0.55c0.115,-0.303 0.209,-0.639 0.209,-0.747c0,-0.108 0.805,-0.196 1.788,-0.196l1.788,0l-0.055,8.876l-0.055,8.876l-1.631,0.061c-1.189,0.045 -1.657,-0.012 -1.727,-0.21c-0.053,-0.149 -0.192,-0.536 -0.311,-0.86l-0.215,-0.589l-0.684,0.511c-3.856,2.887 -10.246,1.107 -12.401,-3.453c-2.67,-5.648 0.264,-12.203 6.008,-13.426c1.304,-0.278 3.956,-0.098 4.897,0.331m28.984,0.003c0.451,0.209 1.118,0.603 1.483,0.876l0.663,0.494l0.246,-0.745l0.246,-0.745l1.772,0l1.772,0l-0.055,8.876l-0.055,8.876l-1.642,0.062l-1.641,0.061l-0.323,-0.821l-0.322,-0.821l-1.028,0.692c-4.779,3.215 -11.846,-0.304 -12.916,-6.432c-1.207,-6.917 5.86,-13.13 11.8,-10.373m42.019,0.078c0.563,0.249 1.234,0.651 1.492,0.894c0.454,0.426 0.474,0.428 0.596,0.042c0.313,-0.993 0.39,-1.029 2.219,-1.029l1.763,0l0.055,8.589c0.063,9.875 0.215,9.163 -1.964,9.163c-1.643,0 -1.978,-0.211 -1.978,-1.247c0,-0.517 -0.264,-0.559 -0.644,-0.102c-2.43,2.929 -9.366,1.614 -11.957,-2.267c-5.003,-7.492 2.466,-17.56 10.418,-14.043m-75.863,3.464c-2.65,1.227 -3.851,4.696 -2.651,7.653c1.72,4.24 7.713,4.175 9.605,-0.104c2.06,-4.658 -2.502,-9.611 -6.954,-7.549m29.142,-0.159c-2.764,0.978 -4.137,5.241 -2.65,8.226c1.561,3.131 5.656,3.731 8.172,1.198c4.252,-4.28 0.077,-11.405 -5.522,-9.424m21.63,-0.085c-4.409,1.41 -4.769,8.531 -0.534,10.554c3.733,1.784 7.333,-0.749 7.318,-5.149c-0.013,-4.107 -3.116,-6.579 -6.784,-5.405m20.422,0.073c-4.732,1.678 -4.491,9.636 0.328,10.792c3.899,0.935 7.09,-1.996 6.659,-6.119c-0.383,-3.663 -3.658,-5.854 -6.987,-4.673" id="path0"/>
   <path fill-rule="evenodd" fill="#fcc89e" d="m33.818552,4.209572c-0.587,0.098 -0.229,0.117 0.946,0.048c1.04,-0.06 1.93,-0.146 1.978,-0.19c0.142,-0.129 -1.897,-0.03 -2.924,0.142m80.27,-0.142c0.048,0.044 0.938,0.131 1.978,0.194c1.393,0.084 1.614,0.067 0.841,-0.062c-1.095,-0.182 -2.971,-0.27 -2.819,-0.132m-84.997,0.761c-0.535,0.23 0.017,0.23 0.736,0c0.422,-0.135 0.443,-0.17 0.105,-0.175c-0.231,-0.003 -0.609,0.075 -0.841,0.175m91.912,0c0.719,0.23 1.271,0.23 0.736,0c-0.232,-0.1 -0.61,-0.178 -0.841,-0.175c-0.338,0.005 -0.317,0.04 0.105,0.175m18.067,10.051c0,0.098 0.204,0.358 0.453,0.578l0.453,0.4l-0.372,-0.578c-0.383,-0.595 -0.534,-0.708 -0.534,-0.4m5.583,9.697c0.077,0.289 0.228,0.667 0.335,0.84c0.136,0.219 0.152,0.155 0.054,-0.21c-0.077,-0.289 -0.228,-0.667 -0.335,-0.84c-0.135,-0.219 -0.152,-0.155 -0.054,0.21m-139.485,2.757c-0.175,0.876 -0.005,1.045 0.184,0.184c0.08,-0.363 0.101,-0.704 0.048,-0.758c-0.054,-0.053 -0.158,0.205 -0.232,0.574m140.667,1.549c0,0.231 0.076,0.657 0.168,0.946c0.133,0.416 0.168,0.438 0.168,0.105c0,-0.231 -0.075,-0.657 -0.168,-0.946c-0.133,-0.415 -0.168,-0.437 -0.168,-0.105m-141.084,0.36c-0.071,0.264 -0.12,0.717 -0.108,1.006c0.011,0.309 0.095,0.142 0.203,-0.407c0.193,-0.984 0.124,-1.417 -0.095,-0.599m141.721,3.527c0,0.404 0.043,0.57 0.096,0.368c0.053,-0.203 0.053,-0.533 0,-0.736c-0.053,-0.202 -0.096,-0.036 -0.096,0.368m-142.351,1.389c-0.074,0.539 -0.122,1.416 -0.106,1.949c0.018,0.628 0.092,0.308 0.208,-0.906c0.192,-1.991 0.123,-2.688 -0.102,-1.043m142.57,0.292c0,0.52 0.041,0.732 0.091,0.472c0.05,-0.26 0.05,-0.685 0,-0.945c-0.05,-0.26 -0.091,-0.047 -0.091,0.473m-133.419,29.243c-0.159,0.16 -0.238,0.837 -0.213,1.839l0.038,1.586l0.119,-1.681l0.119,-1.681l9.874,0l9.874,0l0,1.681l0,1.681l-3.992,0.105l-3.991,0.105l-0.055,9.926l-0.054,9.927l-1.782,0l-1.781,0l-0.055,-9.927l-0.055,-9.926l-4.044,-0.007l-4.044,-0.007l3.992,0.064l3.991,0.064l0,9.982l0,9.983l1.944,-0.061l1.943,-0.06l0.054,-9.927l0.055,-9.926l3.843,0c4.491,0 4.346,0.066 4.346,-1.996c0,-0.88 -0.103,-1.595 -0.252,-1.744c-0.363,-0.363 -19.511,-0.363 -19.874,0m39.76,0.011c-0.055,0.144 -0.076,5.509 -0.046,11.922l0.055,11.66l1.786,0l1.785,0l0.055,-11.751c0.043,-9.262 -0.002,-11.787 -0.21,-11.919c-0.446,-0.283 -3.311,-0.21 -3.425,0.088m28.735,-0.019c-0.201,0.202 -0.248,2.903 -0.21,12.036l0.05,11.775l0.108,-11.87l0.108,-11.87l1.575,0l1.576,0l0.057,3.813c0.064,4.258 0.206,4.728 1.117,3.695l0.506,-0.575l-0.572,0.504c-0.768,0.678 -0.78,0.626 -0.844,-3.865l-0.054,-3.782l-1.578,-0.06c-1.047,-0.04 -1.666,0.027 -1.839,0.199m44.541,-0.109c-0.194,0.082 -0.263,0.955 -0.263,3.34l0,3.23l-1.628,0.062l-1.628,0.061l0,1.576l0,1.575l1.576,0.105l1.575,0.105l0.112,4.307l0.111,4.307l0.046,-4.212c0.054,-4.894 0.125,-4.717 -1.886,-4.717l-1.429,0l0,-1.462l0,-1.461l1.628,-0.062l1.628,-0.061l0.105,-3.256l0.105,-3.257l1.623,-0.061l1.623,-0.061l0.058,3.317l0.058,3.318l3.309,0.105c1.82,0.058 3.309,0.034 3.309,-0.053c0,-0.086 -1.464,-0.157 -3.252,-0.157l-3.251,0l-0.057,-3.309l-0.058,-3.309l-1.576,-0.04c-0.867,-0.022 -1.694,0.01 -1.838,0.07m-69.851,11.893l0.054,11.712l-1.682,0l-1.683,0l0,-11.774l0,-11.773l1.628,0.061l1.628,0.061l0.055,11.713m-18.752,-5.515c-0.535,0.23 0.017,0.23 0.735,0c0.422,-0.135 0.443,-0.17 0.105,-0.175c-0.231,-0.003 -0.609,0.076 -0.84,0.175m3.466,0c0.719,0.23 1.271,0.23 0.736,0c-0.231,-0.099 -0.61,-0.178 -0.841,-0.175c-0.338,0.005 -0.317,0.04 0.105,0.175m28.992,0c0.718,0.23 1.271,0.23 0.735,0c-0.231,-0.099 -0.609,-0.178 -0.84,-0.175c-0.338,0.005 -0.317,0.04 0.105,0.175m18.382,0c-0.535,0.23 0.017,0.23 0.736,0c0.422,-0.135 0.442,-0.17 0.105,-0.175c-0.232,-0.003 -0.61,0.076 -0.841,0.175m2.854,-0.133c0.048,0.042 0.466,0.135 0.928,0.205c0.585,0.089 0.713,0.07 0.42,-0.062c-0.403,-0.183 -1.529,-0.302 -1.348,-0.143m17.104,0.143c-0.293,0.132 -0.165,0.151 0.42,0.062c0.463,-0.07 0.88,-0.163 0.928,-0.205c0.181,-0.159 -0.944,-0.04 -1.348,0.143m-72.374,0.515c-0.289,0.165 -0.43,0.3 -0.315,0.3c0.116,0 0.447,-0.135 0.735,-0.3c0.289,-0.165 0.431,-0.3 0.316,-0.3c-0.116,0 -0.447,0.135 -0.736,0.3m6.513,-0.22c0,0.059 0.361,0.291 0.802,0.516c0.441,0.225 0.926,0.559 1.078,0.742c0.295,0.355 0.858,0.102 0.845,-0.381c-0.004,-0.13 -0.108,-0.063 -0.231,0.148c-0.216,0.372 -0.24,0.371 -0.676,-0.028c-0.484,-0.442 -1.818,-1.173 -1.818,-0.997m28.991,-0.038c0.511,0.553 2.329,1.552 2.448,1.345c0.077,-0.136 0.067,-0.18 -0.024,-0.098c-0.09,0.082 -0.46,-0.072 -0.821,-0.341c-0.629,-0.469 -1.821,-1.143 -1.603,-0.906m22.269,0.258c0.289,0.165 0.62,0.3 0.736,0.3c0.115,0 -0.027,-0.135 -0.315,-0.3c-0.289,-0.165 -0.62,-0.3 -0.736,-0.3c-0.115,0 0.027,0.135 0.315,0.3m25.681,8.246l-0.05,8.666l-1.461,0c-1.168,0 -1.502,-0.074 -1.674,-0.368c-0.118,-0.202 -0.217,-0.268 -0.22,-0.147c-0.02,0.696 3.214,1.126 3.469,0.462c0.055,-0.145 0.075,-4.092 0.043,-8.771l-0.057,-8.508l-0.05,8.666m-56.381,-7.038c-0.601,0.491 -1.132,1.009 -1.179,1.15c-0.047,0.142 0.229,-0.051 0.614,-0.427c0.384,-0.377 0.982,-0.891 1.328,-1.144c0.347,-0.252 0.563,-0.462 0.481,-0.465c-0.082,-0.004 -0.642,0.395 -1.244,0.886m51.987,-0.385c0.579,0.536 0.986,0.56 0.979,0.058c-0.002,-0.179 -0.052,-0.174 -0.174,0.018c-0.132,0.208 -0.309,0.168 -0.784,-0.178l-0.614,-0.447l0.593,0.549m-11.453,1.751c-0.37,0.431 -0.648,0.892 -0.537,0.892c0.043,0 0.288,-0.283 0.544,-0.63c0.506,-0.685 0.502,-0.855 -0.007,-0.262m28.044,0.419c0.9,0.039 2.318,0.039 3.151,-0.001c0.832,-0.04 0.095,-0.072 -1.638,-0.072c-1.733,0 -2.414,0.033 -1.513,0.073m-2.07,0.322c-0.056,0.148 -0.077,2.063 -0.045,4.255l0.058,3.985l0.104,-4.255c0.103,-4.171 0.092,-4.529 -0.117,-3.985m-57.026,0.677c0.392,0.404 0.76,0.735 0.818,0.735c0.057,0 -0.216,-0.331 -0.608,-0.735c-0.392,-0.405 -0.76,-0.736 -0.818,-0.736c-0.057,0 0.216,0.331 0.608,0.736m21.428,0c0.404,0.462 0.817,0.935 0.918,1.05c0.102,0.116 0.086,0.021 -0.033,-0.21c-0.12,-0.231 -0.533,-0.704 -0.919,-1.05l-0.701,-0.63l0.735,0.84m12.735,0.105c-0.418,0.463 -0.76,0.907 -0.76,0.988c0,0.08 0.071,0.056 0.158,-0.053c0.087,-0.11 0.484,-0.555 0.882,-0.988c0.398,-0.433 0.669,-0.788 0.602,-0.788c-0.067,0 -0.464,0.379 -0.882,0.841m-42.187,0.367c-0.37,0.431 -0.648,0.893 -0.536,0.893c0.042,0 0.287,-0.283 0.543,-0.63c0.507,-0.685 0.502,-0.855 -0.007,-0.263m-33.468,1.734c-0.079,0.363 -0.101,0.704 -0.047,0.757c0.053,0.054 0.157,-0.205 0.231,-0.574c0.175,-0.875 0.006,-1.045 -0.184,-0.183m43.103,0.735c0.159,1.038 0.281,1.215 0.276,0.402c-0.001,-0.337 -0.093,-0.754 -0.204,-0.927c-0.137,-0.215 -0.16,-0.047 -0.072,0.525m10.505,0.502c-0.078,0.388 -0.131,0.907 -0.118,1.152c0.012,0.246 0.106,0.021 0.209,-0.499c0.102,-0.52 0.155,-1.038 0.118,-1.152c-0.037,-0.114 -0.132,0.111 -0.209,0.499m-21.297,0.863c0,0.636 0.04,0.896 0.088,0.578c0.048,-0.318 0.048,-0.838 0,-1.155c-0.048,-0.318 -0.088,-0.058 -0.088,0.577m-28.997,0c0,0.52 0.041,0.733 0.091,0.473c0.05,-0.26 0.05,-0.685 0,-0.945c-0.05,-0.26 -0.091,-0.048 -0.091,0.472m81.933,0c0,0.52 0.041,0.733 0.091,0.473c0.05,-0.26 0.05,-0.685 0,-0.945c-0.05,-0.26 -0.091,-0.048 -0.091,0.472m-42.043,0.876c-0.017,0.308 -0.086,0.734 -0.152,0.945c-0.115,0.364 -0.108,0.365 0.118,0.012c0.132,-0.205 0.2,-0.63 0.153,-0.945l-0.087,-0.573l-0.032,0.561m27.538,0.175c0,0.404 0.044,0.57 0.096,0.367c0.053,-0.202 0.053,-0.533 0,-0.735c-0.052,-0.202 -0.096,-0.037 -0.096,0.368m-70.811,0.525c-0.003,0.231 0.075,0.609 0.174,0.84c0.23,0.536 0.23,-0.017 0,-0.735c-0.135,-0.422 -0.169,-0.443 -0.174,-0.105m28.971,0.123c0.008,0.279 0.1,0.696 0.205,0.927c0.132,0.293 0.151,0.166 0.062,-0.42c-0.148,-0.975 -0.289,-1.242 -0.267,-0.507m38.875,0.648c-0.014,0.192 -0.079,0.523 -0.145,0.735c-0.115,0.365 -0.109,0.365 0.119,0.011c0.132,-0.206 0.197,-0.537 0.145,-0.736c-0.085,-0.325 -0.097,-0.326 -0.119,-0.01m7.959,1.96c0.392,0.404 0.76,0.735 0.817,0.735c0.058,0 -0.215,-0.331 -0.607,-0.735c-0.392,-0.404 -0.76,-0.735 -0.818,-0.735c-0.058,0 0.216,0.331 0.608,0.735m23.109,-0.126c0,0.195 1.236,1.386 1.315,1.266c0.032,-0.049 -0.251,-0.389 -0.629,-0.754c-0.377,-0.366 -0.686,-0.596 -0.686,-0.512m5.345,0.558c-0.398,0.318 -0.397,0.321 0.032,0.115c0.312,-0.15 0.524,-0.138 0.725,0.041c0.239,0.212 0.24,0.193 0.007,-0.115c-0.335,-0.443 -0.268,-0.439 -0.764,-0.041m-102.441,1.091c0.227,0.318 0.629,0.767 0.895,0.998c0.266,0.231 0.114,-0.029 -0.337,-0.578c-0.903,-1.098 -1.202,-1.324 -0.558,-0.42m99.252,-0.217c0.319,0.049 0.792,0.047 1.051,-0.003c0.258,-0.049 -0.003,-0.089 -0.581,-0.087c-0.578,0.001 -0.789,0.042 -0.47,0.09m-93.123,0.27c0.289,0.092 0.762,0.166 1.051,0.164c0.472,-0.004 0.461,-0.02 -0.105,-0.164c-0.889,-0.226 -1.652,-0.226 -0.946,0m23.369,0.538c0.431,0.461 1.093,1.005 1.47,1.209c0.663,0.359 0.669,0.359 0.161,-0.005c-0.288,-0.207 -0.95,-0.751 -1.47,-1.209l-0.946,-0.832l0.785,0.837m27.997,-0.538c-0.566,0.144 -0.577,0.16 -0.105,0.164c0.289,0.002 0.762,-0.072 1.05,-0.164c0.706,-0.226 -0.056,-0.226 -0.945,0m19.714,0.065c0.469,0.114 1.072,0.119 1.442,0.012c0.52,-0.149 0.373,-0.185 -0.806,-0.194c-1.313,-0.011 -1.37,0.005 -0.636,0.182m-13.727,0.811c-0.55,0.5 -0.682,0.681 -0.315,0.434c0.58,-0.391 1.543,-1.322 1.346,-1.301c-0.047,0.005 -0.511,0.395 -1.031,0.867m40.646,0.06c0.09,0.283 -0.02,0.534 -0.352,0.802c-0.466,0.377 -0.467,0.383 -0.022,0.165c0.633,-0.309 0.759,-0.574 0.48,-1.009c-0.216,-0.336 -0.225,-0.333 -0.106,0.042m-93.062,0.876c-0.377,0.321 -0.455,0.449 -0.192,0.319c0.385,-0.192 1.107,-0.883 0.901,-0.863c-0.043,0.004 -0.362,0.249 -0.709,0.544m83.702,-0.265c0.279,0.344 1.067,0.865 1.067,0.705c0,-0.04 -0.307,-0.297 -0.682,-0.572c-0.423,-0.31 -0.57,-0.36 -0.385,-0.133m-53.278,0.869c0.039,0.379 0.203,0.421 1.67,0.434l1.626,0.014l-1.562,-0.075c-1.251,-0.06 -1.584,-0.147 -1.67,-0.434c-0.078,-0.266 -0.095,-0.25 -0.064,0.061m-36.877,0.563c0.491,0.194 4.083,0.203 4.384,0.011c0.133,-0.085 -0.88,-0.154 -2.251,-0.154c-1.372,0 -2.331,0.064 -2.133,0.143m8.922,-0.095c0.433,0.045 1.142,0.045 1.576,0c0.433,-0.045 0.078,-0.083 -0.788,-0.083c-0.867,0 -1.221,0.038 -0.788,0.083m22.321,0.057l-2.1,0.129l1.995,0.037c1.098,0.021 2.138,-0.054 2.311,-0.166c0.174,-0.112 0.221,-0.187 0.105,-0.166c-0.115,0.02 -1.155,0.095 -2.311,0.166m13.704,-0.059c0.373,0.047 1.034,0.048 1.47,0.002c0.436,-0.045 0.131,-0.083 -0.678,-0.084c-0.809,-0.001 -1.165,0.036 -0.792,0.082m5.895,0.097c0.197,0.078 1.21,0.142 2.25,0.142c1.04,0 2.053,-0.064 2.251,-0.142c0.198,-0.079 -0.815,-0.143 -2.251,-0.143c-1.436,0 -2.448,0.064 -2.25,0.143m19.927,-0.011c0.215,0.084 1.288,0.149 2.386,0.144c2.441,-0.012 2.092,-0.122 -0.705,-0.223c-1.139,-0.041 -1.896,-0.005 -1.681,0.079m23.127,0.125c0.373,0.046 1.035,0.047 1.471,0.001c0.436,-0.045 0.131,-0.083 -0.678,-0.084c-0.809,-0.001 -1.166,0.036 -0.793,0.083m-127.448,27.176c0.009,0.626 0.094,1.564 0.19,2.084c0.119,0.648 0.138,0.318 0.06,-1.051c-0.124,-2.2 -0.274,-2.82 -0.25,-1.033m142.668,1.384c-0.02,0.481 -0.091,1.049 -0.157,1.26c-0.114,0.362 -0.107,0.363 0.117,0.015c0.13,-0.204 0.201,-0.771 0.157,-1.261l-0.08,-0.89l-0.037,0.876m-142.039,4.394c0.009,0.337 0.099,0.801 0.201,1.033c0.124,0.28 0.145,0.106 0.061,-0.526c-0.147,-1.113 -0.282,-1.376 -0.262,-0.507m141.398,0.192c-0.017,0.231 -0.08,0.657 -0.14,0.946l-0.108,0.525l0.225,-0.516c0.124,-0.283 0.187,-0.708 0.14,-0.945c-0.083,-0.419 -0.086,-0.419 -0.117,-0.01m-140.956,1.996c0.01,0.546 0.341,1.442 0.348,0.945c0.004,-0.231 -0.075,-0.609 -0.174,-0.84c-0.111,-0.257 -0.178,-0.298 -0.174,-0.105m23.808,23.099c0.404,0.183 1.529,0.302 1.348,0.143c-0.048,-0.042 -0.465,-0.135 -0.927,-0.205c-0.586,-0.089 -0.713,-0.07 -0.421,0.062m92.227,0.01c-0.566,0.144 -0.577,0.161 -0.105,0.165c0.289,0.002 0.762,-0.072 1.051,-0.165c0.706,-0.226 -0.057,-0.226 -0.946,0m-88.498,0.565c0.203,0.053 0.533,0.053 0.736,0c0.202,-0.053 0.036,-0.096 -0.368,-0.096c-0.404,0 -0.57,0.043 -0.368,0.096m84.982,0.004c0.261,0.05 0.639,0.048 0.84,-0.004c0.201,-0.053 -0.013,-0.094 -0.475,-0.092c-0.462,0.003 -0.627,0.046 -0.365,0.096m-82.461,0.212c0.318,0.048 0.838,0.048 1.156,0c0.318,-0.048 0.058,-0.088 -0.578,-0.088c-0.635,0 -0.895,0.04 -0.578,0.088m79.412,0c0.318,0.048 0.838,0.048 1.156,0c0.317,-0.048 0.057,-0.088 -0.578,-0.088c-0.636,0 -0.896,0.04 -0.578,0.088" id="path2"/>
   <path fill-rule="evenodd" fill="#fcac6e" d="m56.245552,4.145572c10.543,0.03 27.797,0.03 38.34,0c10.544,-0.03 1.917,-0.055 -19.17,-0.055c-21.087,0 -29.714,0.025 -19.17,0.055m-21.114,0.203c0.318,0.048 0.838,0.048 1.156,0c0.318,-0.048 0.058,-0.088 -0.578,-0.088c-0.635,0 -0.895,0.04 -0.578,0.088m79.412,0c0.318,0.048 0.838,0.048 1.156,0c0.317,-0.048 0.057,-0.088 -0.578,-0.088c-0.636,0 -0.896,0.04 -0.578,0.088m18.855,5.588c0,0.052 0.347,0.359 0.771,0.682c0.425,0.324 0.705,0.481 0.624,0.35c-0.166,-0.269 -1.395,-1.178 -1.395,-1.032m12.113,18.316c0.07,0.462 0.163,0.88 0.205,0.928c0.159,0.181 0.04,-0.945 -0.143,-1.348c-0.132,-0.293 -0.151,-0.166 -0.062,0.42m-140.448,0.42c-0.018,0.231 -0.081,0.657 -0.14,0.946l-0.108,0.525l0.225,-0.515c0.124,-0.284 0.187,-0.709 0.14,-0.946c-0.084,-0.419 -0.087,-0.419 -0.117,-0.01m141.086,3.362c0.064,0.693 0.152,1.3 0.196,1.348c0.14,0.156 0.034,-1.331 -0.142,-1.979c-0.113,-0.414 -0.131,-0.198 -0.054,0.631m-141.694,0.735c0,0.404 0.044,0.57 0.096,0.368c0.053,-0.203 0.053,-0.533 0,-0.736c-0.052,-0.202 -0.096,-0.036 -0.096,0.368m142.281,42.647c0,21.087 0.025,29.714 0.055,19.17c0.03,-10.543 0.03,-27.797 0,-38.34c-0.03,-10.544 -0.055,-1.917 -0.055,19.17m-93.914,-11.712c-0.055,0.144 -0.076,5.557 -0.046,12.027l0.055,11.765l0.105,-12.028c0.058,-6.615 0.078,-12.027 0.046,-12.027c-0.033,0 -0.104,0.118 -0.16,0.263m32.417,2.415c0.101,4.959 0.177,5.436 0.219,1.366c0.023,-2.224 -0.03,-4.044 -0.117,-4.044c-0.086,0 -0.132,1.205 -0.102,2.678m44.545,0.703l0.063,3.342l3.194,-0.047l3.193,-0.046l-3.098,-0.064l-3.099,-0.064l0,-3.134c0,-1.723 -0.071,-3.177 -0.158,-3.231c-0.086,-0.053 -0.129,1.406 -0.095,3.244m-72.968,8.699c0,6.471 0.026,9.148 0.059,5.95c0.033,-3.198 0.033,-8.492 0,-11.765c-0.033,-3.272 -0.059,-0.656 -0.059,5.815m24.531,0.011c-0.038,8.934 0.011,11.836 0.202,12.027c0.276,0.276 3.229,0.358 3.393,0.094c0.054,-0.086 -0.673,-0.157 -1.616,-0.157l-1.714,0l-0.107,-11.87l-0.108,-11.87l-0.05,11.776m-60.247,1.88c0,5.546 0.028,7.785 0.061,4.975c0.033,-2.81 0.033,-7.348 0,-10.084c-0.034,-2.736 -0.061,-0.437 -0.061,5.109m4.202,0c0,5.546 0.027,7.785 0.06,4.975c0.033,-2.81 0.033,-7.348 0,-10.084c-0.033,-2.736 -0.06,-0.437 -0.06,5.109m13.926,-7.726c0.376,0.046 0.99,0.046 1.366,0c0.375,-0.047 0.068,-0.085 -0.683,-0.085c-0.751,0 -1.058,0.038 -0.683,0.085m28.777,-0.001c0.373,0.047 1.035,0.047 1.47,0.002c0.436,-0.045 0.131,-0.083 -0.678,-0.084c-0.808,-0.001 -1.165,0.036 -0.792,0.082m21.853,0.001c0.376,0.046 0.99,0.046 1.366,0c0.375,-0.047 0.068,-0.085 -0.683,-0.085c-0.751,0 -1.058,0.038 -0.683,0.085m20.168,0c0.376,0.046 0.99,0.046 1.366,0c0.375,-0.047 0.068,-0.085 -0.683,-0.085c-0.751,0 -1.058,0.038 -0.683,0.085m-39.233,0.128c0,0.054 0.305,0.205 0.678,0.335c0.373,0.13 0.586,0.15 0.473,0.044c-0.239,-0.224 -1.151,-0.524 -1.151,-0.379m45.434,0.402c-0.283,0.363 -0.48,1.236 -0.246,1.091c0.105,-0.064 0.19,-0.282 0.19,-0.483c0,-0.201 0.114,-0.479 0.252,-0.618c0.139,-0.139 0.198,-0.252 0.131,-0.252c-0.067,0 -0.214,0.118 -0.327,0.262m3.411,8.529l0,8.751l-1.608,0.061c-1.591,0.06 -1.61,0.055 -1.822,-0.525c-0.117,-0.323 -0.221,-0.462 -0.23,-0.31c-0.06,1.002 2.893,1.666 3.723,0.837c0.285,-0.285 0.377,-17.293 0.094,-17.468c-0.086,-0.053 -0.157,3.841 -0.157,8.654m3.088,-8.539c-0.157,0.157 -0.238,0.813 -0.214,1.733l0.038,1.481l0.119,-1.575l0.12,-1.576l1.681,-0.119l1.68,-0.119l-1.586,-0.039c-1.002,-0.024 -1.679,0.055 -1.838,0.214m13.612,1.682c-0.057,1.005 -0.029,1.753 0.063,1.66c0.092,-0.092 0.139,-0.915 0.104,-1.828l-0.064,-1.661l-0.103,1.829m-50.144,-0.973l-0.59,0.54l0.683,-0.475c0.375,-0.261 0.683,-0.504 0.683,-0.54c0,-0.166 -0.233,-0.024 -0.776,0.475m28.087,-0.483c0,0.04 0.307,0.298 0.682,0.573c0.423,0.309 0.57,0.36 0.385,0.133c-0.28,-0.345 -1.067,-0.865 -1.067,-0.706m-51.903,1.78l-0.724,0.788l0.788,-0.724c0.734,-0.674 0.885,-0.852 0.724,-0.852c-0.035,0 -0.389,0.355 -0.788,0.788m29.213,1.042c0.174,0.064 0.623,0.24 0.998,0.393c0.376,0.152 0.683,0.23 0.683,0.172c0,-0.15 -1.404,-0.717 -1.726,-0.697c-0.175,0.01 -0.159,0.057 0.045,0.132m-55.006,1.059c-0.44,0.439 -0.506,0.544 -0.15,0.238c0.352,-0.303 0.829,-0.654 1.06,-0.782c0.231,-0.127 0.298,-0.234 0.149,-0.237c-0.149,-0.004 -0.626,0.348 -1.059,0.781m6.416,-0.252c0.371,0.293 0.922,0.835 1.225,1.206c0.303,0.371 0.454,0.477 0.335,0.236c-0.233,-0.471 -1.818,-1.979 -2.077,-1.975c-0.087,0.001 0.146,0.241 0.517,0.533m43.799,0.441l-0.986,0.976l1.051,-0.907c0.577,-0.499 1.089,-0.938 1.138,-0.977c0.048,-0.038 0.019,-0.069 -0.065,-0.069c-0.084,0 -0.596,0.44 -1.138,0.977m20.593,-0.189c-0.502,0.491 -0.51,0.515 -0.055,0.161c0.896,-0.699 0.939,-0.739 0.79,-0.739c-0.079,0 -0.409,0.26 -0.735,0.578m22.522,3.519c0,2.311 0.031,3.285 0.068,2.165c0.038,-1.121 0.038,-3.012 0.001,-4.202c-0.038,-1.191 -0.069,-0.274 -0.069,2.037m-57.861,-3.821c0,0.036 0.307,0.344 0.682,0.683l0.683,0.617l-0.617,-0.683c-0.575,-0.636 -0.748,-0.779 -0.748,-0.617m21.428,0c0,0.036 0.307,0.344 0.683,0.683l0.683,0.617l-0.617,-0.683c-0.575,-0.636 -0.749,-0.779 -0.749,-0.617m5.936,3.611c0.002,0.462 0.045,0.626 0.095,0.365c0.05,-0.261 0.049,-0.639 -0.004,-0.84c-0.053,-0.201 -0.094,0.013 -0.091,0.475m-68.492,0.105c0,0.404 0.043,0.57 0.096,0.368c0.053,-0.203 0.053,-0.533 0,-0.736c-0.053,-0.202 -0.096,-0.036 -0.096,0.368m70.823,1.05c0,0.983 0.036,1.384 0.08,0.893c0.045,-0.491 0.045,-1.294 0,-1.785c-0.044,-0.492 -0.08,-0.09 -0.08,0.892m-38.031,0c0,0.751 0.038,1.059 0.084,0.683c0.047,-0.375 0.047,-0.99 0,-1.365c-0.046,-0.376 -0.084,-0.069 -0.084,0.682m-28.996,0c0,0.636 0.039,0.896 0.087,0.578c0.048,-0.318 0.048,-0.838 0,-1.155c-0.048,-0.318 -0.087,-0.058 -0.087,0.577m60.926,0.105c0.001,0.694 0.041,0.952 0.087,0.574c0.047,-0.377 0.046,-0.944 -0.002,-1.26c-0.048,-0.316 -0.086,-0.007 -0.085,0.686m9.869,0c0.002,0.578 0.042,0.79 0.091,0.47c0.048,-0.319 0.047,-0.792 -0.003,-1.05c-0.05,-0.259 -0.089,0.003 -0.088,0.58m10.714,0c0.002,0.578 0.043,0.79 0.091,0.47c0.048,-0.319 0.047,-0.792 -0.003,-1.05c-0.05,-0.259 -0.089,0.003 -0.088,0.58m-85.305,0.946c0,0.404 0.043,0.57 0.096,0.367c0.053,-0.202 0.053,-0.533 0,-0.735c-0.053,-0.202 -0.096,-0.037 -0.096,0.368m68.492,0.105c0.002,0.462 0.045,0.626 0.095,0.365c0.05,-0.261 0.049,-0.639 -0.004,-0.84c-0.053,-0.201 -0.094,0.013 -0.091,0.475m-39.31,1.365c0,0.174 0.082,0.505 0.181,0.736c0.114,0.265 0.181,0.303 0.181,0.105c0,-0.174 -0.082,-0.504 -0.181,-0.736c-0.114,-0.264 -0.181,-0.303 -0.181,-0.105m25.397,0.146c-0.003,0.138 0.207,0.474 0.467,0.746c0.26,0.272 0.367,0.348 0.239,0.169c-0.128,-0.179 -0.338,-0.514 -0.466,-0.746c-0.128,-0.231 -0.236,-0.307 -0.24,-0.169m29.195,1.377c-0.309,0.423 -0.36,0.57 -0.133,0.385c0.344,-0.279 0.865,-1.067 0.706,-1.067c-0.04,0 -0.298,0.307 -0.573,0.682m15.35,-0.423c-0.007,0.2 0.247,0.63 0.565,0.955c0.317,0.326 0.418,0.398 0.222,0.161c-0.195,-0.236 -0.449,-0.666 -0.564,-0.955c-0.144,-0.362 -0.214,-0.412 -0.223,-0.161m-57.786,0.83c-0.52,0.474 -0.757,0.762 -0.525,0.64c0.395,-0.209 1.76,-1.529 1.562,-1.511c-0.051,0.005 -0.517,0.397 -1.037,0.871m34.243,-0.813c0,0.036 0.308,0.343 0.683,0.682l0.683,0.617l-0.617,-0.682c-0.575,-0.637 -0.749,-0.78 -0.749,-0.617m-69.975,0.85c0.28,0.345 1.068,0.866 1.068,0.706c0,-0.04 -0.307,-0.298 -0.683,-0.572c-0.422,-0.31 -0.569,-0.36 -0.385,-0.134m56.845,0.265c-0.378,0.322 -0.455,0.45 -0.193,0.32c0.385,-0.192 1.108,-0.883 0.902,-0.863c-0.043,0.004 -0.362,0.248 -0.709,0.543m38.816,0.65c0.319,0.049 0.792,0.047 1.051,-0.003c0.258,-0.05 -0.003,-0.089 -0.581,-0.087c-0.578,0.001 -0.789,0.042 -0.47,0.09m-98.795,1.215c0.392,0.404 0.76,0.735 0.818,0.735c0.058,0 -0.216,-0.331 -0.608,-0.735c-0.392,-0.404 -0.76,-0.735 -0.817,-0.735c-0.058,0 0.215,0.331 0.607,0.735m28.992,0c0.392,0.404 0.76,0.735 0.818,0.735c0.057,0 -0.216,-0.331 -0.608,-0.735c-0.392,-0.404 -0.76,-0.735 -0.818,-0.735c-0.058,0 0.216,0.331 0.608,0.735m34.335,0.158l-0.617,0.682l0.683,-0.617c0.636,-0.575 0.779,-0.748 0.617,-0.748c-0.036,0 -0.343,0.307 -0.683,0.683m-10.823,0.864c0.28,0.344 1.068,0.865 1.068,0.706c0,-0.041 -0.308,-0.298 -0.683,-0.573c-0.423,-0.309 -0.569,-0.36 -0.385,-0.133m-8.176,0.955c0,0.192 -0.441,0.243 -1.661,0.192c-0.914,-0.037 -1.618,0.003 -1.564,0.089c0.154,0.247 3.183,0.186 3.339,-0.066c0.076,-0.123 0.081,-0.281 0.012,-0.35c-0.069,-0.07 -0.126,-0.009 -0.126,0.135m15.651,0.131c-0.525,0.253 -0.543,0.282 -0.105,0.175c0.595,-0.145 1.265,-0.486 0.946,-0.481c-0.116,0.001 -0.494,0.139 -0.841,0.306m-71.054,0.042c0.552,0.044 1.403,0.043 1.89,-0.001c0.488,-0.044 0.036,-0.079 -1.004,-0.079c-1.04,0.001 -1.439,0.037 -0.886,0.08m23.187,0.108c0.054,0.087 0.796,0.158 1.649,0.158c0.853,0 1.594,-0.071 1.648,-0.158c0.053,-0.086 -0.688,-0.157 -1.648,-0.157c-0.96,0 -1.702,0.071 -1.649,0.157m8.424,-0.108c0.491,0.044 1.295,0.044 1.786,0c0.491,-0.045 0.089,-0.081 -0.893,-0.081c-0.982,0 -1.384,0.036 -0.893,0.081m-14.811,0.419c0.433,0.045 1.142,0.045 1.576,0c0.433,-0.045 0.078,-0.082 -0.788,-0.082c-0.867,0 -1.221,0.037 -0.788,0.082m28.882,-0.001c0.373,0.046 1.035,0.047 1.47,0.001c0.436,-0.045 0.131,-0.083 -0.678,-0.084c-0.808,-0.001 -1.165,0.036 -0.792,0.083m21.748,0.001c0.434,0.045 1.143,0.045 1.576,0c0.433,-0.045 0.079,-0.082 -0.788,-0.082c-0.867,0 -1.221,0.037 -0.788,0.082m20.168,0c0.434,0.045 1.143,0.045 1.576,0c0.433,-0.045 0.079,-0.082 -0.788,-0.082c-0.866,0 -1.221,0.037 -0.788,0.082m-105.466,30.099c0,0.404 0.044,0.57 0.096,0.368c0.053,-0.202 0.053,-0.533 0,-0.736c-0.052,-0.202 -0.096,-0.036 -0.096,0.368m141.653,0.63c-0.081,0.593 -0.104,1.122 -0.049,1.176c0.054,0.054 0.163,-0.388 0.242,-0.983c0.079,-0.595 0.101,-1.124 0.049,-1.176c-0.051,-0.052 -0.16,0.391 -0.242,0.983m-0.604,3.808c-0.175,0.876 -0.005,1.046 0.184,0.184c0.08,-0.363 0.101,-0.704 0.048,-0.758c-0.054,-0.053 -0.158,0.205 -0.232,0.574m-3.412,8.85c-0.723,1.227 -0.771,1.332 -0.402,0.893c0.426,-0.509 0.794,-1.156 0.657,-1.156c-0.055,0 -0.17,0.118 -0.255,0.263m-114.261,14.233c0.231,0.099 0.562,0.181 0.735,0.181c0.199,0 0.16,-0.067 -0.105,-0.181c-0.231,-0.099 -0.562,-0.18 -0.735,-0.18c-0.199,0 -0.16,0.066 0.105,0.18m94.538,0c-0.265,0.114 -0.304,0.181 -0.105,0.181c0.173,0 0.504,-0.082 0.735,-0.181c0.265,-0.114 0.304,-0.18 0.105,-0.18c-0.173,0 -0.504,0.081 -0.735,0.18m-91.684,0.499c0.048,0.043 0.654,0.131 1.348,0.196c0.829,0.077 1.044,0.059 0.63,-0.054c-0.648,-0.176 -2.135,-0.283 -1.978,-0.142m88.48,0.066c0.202,0.053 0.533,0.053 0.735,0c0.203,-0.053 0.037,-0.096 -0.367,-0.096c-0.405,0 -0.57,0.043 -0.368,0.096m-84.034,0.426c0.318,0.048 0.838,0.048 1.156,0c0.318,-0.048 0.058,-0.088 -0.578,-0.088c-0.635,0 -0.895,0.04 -0.578,0.088m79.412,0c0.318,0.048 0.838,0.048 1.156,0c0.317,-0.048 0.057,-0.088 -0.578,-0.088c-0.636,0 -0.896,0.04 -0.578,0.088m-58.176,0.217c10.61,0.03 27.91,0.03 38.445,0c10.534,-0.03 1.853,-0.055 -19.292,-0.055c-21.145,0 -29.764,0.025 -19.153,0.055" id="path3"/>
   <path fill-rule="evenodd" fill="#fcb47d" d="m137.810552,13.717572c0,0.036 0.307,0.343 0.683,0.683l0.683,0.617l-0.618,-0.683c-0.575,-0.636 -0.748,-0.779 -0.748,-0.617m8.662,20.312c0,0.405 0.043,0.57 0.096,0.368c0.053,-0.202 0.053,-0.533 0,-0.735c-0.053,-0.202 -0.096,-0.037 -0.096,0.367m-142.383,41.387c0,21.203 0.025,29.877 0.055,19.275c0.03,-10.601 0.03,-27.949 0,-38.55c-0.03,-10.602 -0.055,-1.928 -0.055,19.275m43.067,-5.31l1.574,0.076l0.058,8.604l0.058,8.605l-0.003,-8.666l-0.004,-8.666l-1.628,-0.014l-1.629,-0.015l1.574,0.076m28.991,0l1.574,0.076l0.059,8.552l0.058,8.552l-0.003,-8.614l-0.004,-8.613l-1.629,-0.014l-1.629,-0.015l1.574,0.076m41.127,0.001c0.434,0.045 1.143,0.045 1.576,0c0.433,-0.045 0.079,-0.083 -0.788,-0.083c-0.867,0 -1.221,0.038 -0.788,0.083m5.598,3.481c0.093,0.092 0.821,0.139 1.618,0.103l1.45,-0.065l-1.618,-0.103c-0.891,-0.056 -1.543,-0.027 -1.45,0.065m8.698,0.094c0.9,0.039 2.318,0.039 3.151,-0.001c0.832,-0.04 0.095,-0.072 -1.638,-0.072c-1.733,0.001 -2.414,0.033 -1.513,0.073m-86.148,5.095c0,0.405 0.043,0.57 0.096,0.368c0.053,-0.202 0.053,-0.533 0,-0.735c-0.053,-0.202 -0.096,-0.037 -0.096,0.367m-5.669,5.817c0.202,0.053 0.533,0.053 0.736,0c0.202,-0.052 0.036,-0.096 -0.368,-0.096c-0.405,0 -0.57,0.044 -0.368,0.096m28.889,0.004c0.262,0.05 0.64,0.049 0.841,-0.004c0.2,-0.053 -0.013,-0.094 -0.476,-0.091c-0.462,0.002 -0.626,0.045 -0.365,0.095m21.321,-0.004c0.203,0.053 0.533,0.053 0.736,0c0.202,-0.052 0.036,-0.096 -0.368,-0.096c-0.404,0 -0.57,0.044 -0.368,0.096m20.589,0c0.202,0.053 0.533,0.053 0.735,0c0.202,-0.052 0.037,-0.096 -0.368,-0.096c-0.404,0 -0.57,0.044 -0.367,0.096m35.92,32.209c0,0.404 0.043,0.569 0.096,0.367c0.053,-0.202 0.053,-0.533 0,-0.735c-0.053,-0.202 -0.096,-0.037 -0.096,0.368m-133.977,19.958c0.451,0.462 0.868,0.84 0.925,0.84c0.058,0 -0.264,-0.378 -0.715,-0.84c-0.451,-0.463 -0.868,-0.841 -0.926,-0.841c-0.057,0 0.265,0.378 0.716,0.841" id="path4"/>
  </g>
 </g>
</svg>